<?xml version="1.0" encoding="utf-8"?>
<!DOCTYPE svg PUBLIC "-//W3C//DTD SVG 1.0//EN" "http://www.w3.org/TR/2001/REC-SVG-20010904/DTD/svg10.dtd">
<svg version="1.0" xmlns="http://www.w3.org/2000/svg" width="1080px" height="1080px" viewBox="0 0 1080 1080"
  preserveAspectRatio="xMidYMid meet">
  <g fill="#fcfcfc">
    <path
      d="M0 540 l0 -540 540 0 540 0 0 540 0 540 -540 0 -540 0 0 -540z m348.75 320.25 c6.55 -1.20 11.95 -2.30 12 -2.35 0.10 -0.10 0 -17.90 -0.25 -39.65 -0.20 -21.70 -0.25 -39.65 -0.05 -39.80 0.40 -0.45 17.30 -3.45 19.15 -3.45 1.25 0 1.35 0.15 1.60 3.15 0.15 1.70 0.35 19.40 0.50 39.30 0.15 19.90 0.35 36.30 0.50 36.40 0.30 0.35 24.20 -4.10 24.65 -4.55 0.30 -0.30 -0.70 -181.80 -1 -182.10 -0.05 -0.05 -5.70 0.95 -12.55 2.20 l-12.45 2.35 0.10 39.10 0.15 39.10 -1.20 0.25 c-4.80 1.05 -15.70 2.80 -17.50 2.80 l-2.25 0 -0.25 -38.50 c-0.15 -21.20 -0.35 -38.60 -0.45 -38.70 -0.10 -0.10 -5.80 0.85 -12.65 2.15 l-12.45 2.30 0.30 46 c1 136.95 1 136.25 1.60 136.25 0.35 0 5.95 -1 12.50 -2.25z m116.70 -19.20 c6.55 -2.20 10.05 -4.20 14.35 -8.20 5.60 -5.20 8.65 -10.90 10.50 -19.60 0.75 -3.35 1.10 -21 0.45 -21.65 -0.20 -0.25 -15.05 2.20 -21.35 3.50 l-2.40 0.50 0 9.55 c0 5.30 -0.25 10.40 -0.50 11.35 -0.25 1 -1.30 2.55 -2.25 3.50 -1.75 1.70 -1.95 1.75 -5.75 1.75 -3.40 0 -4.10 -0.15 -5.15 -1.15 -2.15 -2 -2.35 -4.05 -2.70 -23.30 l-0.30 -18.20 2.70 -0.55 c1.50 -0.30 10.35 -1.90 19.70 -3.55 9.35 -1.65 17.30 -3.15 17.65 -3.25 0.55 -0.20 0.65 -4.50 0.50 -24.15 -0.20 -22.45 -0.30 -24.10 -1.30 -27.85 -1.45 -5.25 -2.85 -8.40 -5.40 -11.75 -3.05 -4.05 -5.90 -6.40 -9.90 -8.25 -4.80 -2.20 -8.60 -2.95 -13.25 -2.50 -9.60 0.85 -17.75 4.20 -23.70 9.75 -7.25 6.80 -10.35 14.80 -11.05 28.50 -0.15 2.90 -0.05 22.35 0.15 43.25 l0.40 38 1.25 4.30 c3.10 10.50 9.30 17.55 18.40 20.80 2.85 1 3.95 1.15 8.75 0.95 4.45 -0.15 6.40 -0.50 10.20 -1.75z m58.55 -12.95 l9.75 -1.85 -0.25 -40.25 c-0.45 -69.25 -0.45 -67.80 0.95 -70.90 2.35 -5.15 6.55 -7.55 14.05 -7.95 l4.85 -0.30 0.60 -12.30 c0.35 -6.75 0.70 -12.80 0.85 -13.45 0.20 -1.05 0.10 -1.10 -1.90 -0.80 -8.25 1.20 -14.60 5.35 -18.70 12.25 -1.30 2.20 -1.60 2.45 -3.30 2.45 -1.75 0 -2.05 -0.25 -4.95 -4.05 -2.50 -3.30 -3.25 -4 -4.15 -3.75 -0.55 0.10 -3.20 0.60 -5.80 1.05 -2.60 0.40 -5.25 0.90 -5.90 1.05 l-1.15 0.25 0.25 54.35 c0.20 29.90 0.45 61.60 0.60 70.50 l0.30 16.15 2.10 -0.30 c1.10 -0.20 6.45 -1.15 11.80 -2.15z m79.15 -11.95 c8.60 -1.90 16.25 -7 20.95 -13.85 2.55 -3.70 4.15 -7.80 5.50 -13.80 1 -4.60 1 -6.05 0.95 -43 -0.05 -21.95 -0.30 -40.40 -0.60 -43.25 -0.85 -8.35 -3.10 -15.15 -6.65 -20.10 -4.75 -6.65 -15.30 -11.30 -23.50 -10.40 -3.90 0.45 -9.55 1.95 -13.10 3.55 -3.35 1.45 -9.45 5.55 -11.25 7.50 -2.35 2.50 -5.25 7.45 -6.60 11.25 -2.70 7.45 -2.85 10 -2.80 41.40 0 15.85 0.20 34.75 0.45 42.05 0.40 11.85 0.55 13.75 1.70 17.90 0.70 2.50 1.75 5.55 2.35 6.75 1.80 3.50 5.25 7.65 8.45 10 6.60 5 14.25 6.25 24.15 4z m81.25 -14.90 c14 -3.75 22.65 -13.05 25.95 -27.95 0.55 -2.55 0.75 -6.20 0.75 -12.70 0 -5.05 -0.10 -9.30 -0.20 -9.35 -0.10 -0.10 -5.50 0.75 -12.05 1.90 l-11.85 2.05 0.10 9.05 c0.10 10.80 -0.40 13.50 -2.90 15.70 -2 1.80 -4.35 2.30 -7.50 1.75 -1.85 -0.35 -2.65 -0.85 -3.90 -2.35 l-1.55 -1.90 -0.30 -9.85 c-0.20 -5.40 -0.40 -14.15 -0.40 -19.40 l-0.05 -9.60 2.40 -0.35 c2.35 -0.35 34.05 -6 36.75 -6.55 l1.45 -0.30 -0.20 -24.05 c-0.20 -22.55 -0.30 -24.35 -1.25 -27.90 -3.30 -11.90 -9.70 -18.80 -20.05 -21.70 -2.50 -0.70 -4.20 -0.85 -8.25 -0.60 -8.25 0.50 -14.35 2.60 -21.20 7.25 -6.80 4.65 -10.95 11.65 -12.95 21.75 -0.70 3.60 -0.80 9 -0.75 44.10 0.05 22 0.20 41.35 0.35 43 1.45 14.85 9.80 25.95 21.80 29 3.60 0.95 10.10 0.55 15.80 -1z m78 -14.25 c13.80 -3.90 22.40 -13.90 24.85 -28.90 0.95 -5.75 0.95 -7.90 0 -15.35 -2.05 -16.15 -5.65 -22.15 -21.40 -35.90 -11.25 -9.85 -13.90 -13.05 -15.50 -18.85 -2 -7.10 -2.35 -18.70 -0.65 -22.55 1.25 -2.95 3.45 -4.45 6.40 -4.45 2.10 0 2.70 0.20 3.85 1.45 2 2.15 2.55 5.45 2.55 15.85 l0 9.20 1.15 -0.25 c0.60 -0.10 5.50 -1.05 10.85 -2 5.35 -0.95 10.25 -1.90 10.85 -2 1.55 -0.35 1.95 -4.45 1.20 -11.75 -1.05 -10.50 -3.30 -16.20 -8.50 -21.45 -2.85 -2.90 -4 -3.65 -7.60 -5.10 -4.05 -1.60 -4.45 -1.70 -10.70 -1.65 -4.80 0 -7.35 0.25 -9.75 0.90 -4.55 1.30 -10.30 4.05 -13.40 6.40 -2.80 2.20 -6.70 7.20 -8.85 11.40 -3.20 6.35 -4.30 15.30 -3.05 25 2.15 16.55 5.40 22 21.10 35.60 11.10 9.65 13.55 12.55 15.60 18.95 2.40 7.25 2.80 20.80 0.80 24.70 -1.40 2.70 -3.80 4.25 -6.55 4.25 -5.75 0 -6.70 -2.20 -7 -16.35 -0.20 -6.55 -0.45 -10.15 -0.80 -10.15 -1 0 -22.60 4.10 -23.05 4.35 -0.25 0.15 -0.30 3.50 -0.15 7.60 0.40 10.20 2.20 16.30 6.45 22.20 3.35 4.55 9.60 8.90 14.35 9.90 3.20 0.70 13 0.10 16.95 -1.05z m-234.95 -139.80 c8.05 -2.60 13.85 -6.65 18.50 -12.80 2.45 -3.35 4.30 -7.80 5.65 -13.90 1.05 -4.65 1.10 -5.60 0.95 -43.50 -0.05 -21.30 -0.30 -40.80 -0.60 -43.35 -0.75 -7.85 -3.45 -15.70 -7.05 -20.45 -1.95 -2.60 -6.20 -5.65 -10.55 -7.55 -3.95 -1.75 -4.30 -1.85 -10.10 -1.85 -4.95 -0.05 -6.65 0.20 -9.75 1.15 -5.85 1.80 -10.45 4.20 -14.35 7.55 -5.70 4.80 -8.90 10.30 -11 19 -1 4.30 -1.40 41.50 -0.70 70.25 0.40 18.20 0.60 20.95 1.50 24.35 2.85 10.55 7.85 17.10 15.85 20.75 3.45 1.55 5.95 2.05 11.55 2.10 4 0.05 5.30 -0.20 10.10 -1.75z m59 -13 l10.70 -1.95 -0.30 -30.25 c-0.20 -16.65 -0.40 -44.10 -0.45 -61 l-0.15 -30.70 4.50 -0.90 c2.50 -0.50 5.70 -1.15 7.15 -1.45 l2.70 -0.55 -0.40 -8.55 c-0.15 -4.75 -0.40 -8.70 -0.50 -8.80 -0.10 -0.10 -2.20 0.20 -4.65 0.65 -2.45 0.45 -5.50 0.80 -6.80 0.80 l-2.35 0 0.25 -7.85 c0.15 -4.35 0.55 -8.75 0.85 -9.75 1.40 -4.05 6.30 -6.90 11.90 -6.90 l3.10 0 0 -9.25 0 -9.25 -1.85 -0.10 c-7 -0.25 -13.80 1.15 -20.30 4.30 -9.95 4.80 -15.95 13 -17.85 24.25 -0.45 2.60 -0.50 6.10 -0.25 11.65 l0.35 7.90 -3.80 4.10 -3.80 4.15 0 5.65 c0 5.10 0.10 5.65 0.85 5.40 0.45 -0.20 2.10 -0.45 3.65 -0.65 l2.85 -0.30 0.30 8.70 c0.20 4.80 0.35 21.55 0.35 37.20 0 15.70 0.15 39.15 0.35 52.15 l0.30 23.70 1.30 -0.25 c0.70 -0.15 6.10 -1.10 12 -2.15z m-204.90 -203.45 c5.35 -1 10.85 -2 12.20 -2.25 l2.50 -0.50 -0.15 -39 -0.20 -38.95 1.20 -0.25 c0.60 -0.15 5.65 -1.05 11.15 -2.05 5.50 -0.95 10.50 -1.85 11.15 -2 l1.10 -0.25 0 -12.25 c0 -9.90 -0.15 -12.25 -0.65 -12.25 -0.40 0 -5.05 0.80 -10.35 1.75 -5.30 0.95 -10.60 1.75 -11.75 1.75 l-2.10 0 -0.35 -28.05 c-0.20 -15.45 -0.25 -28.15 -0.15 -28.30 0.15 -0.10 5.70 -1.20 12.40 -2.40 6.70 -1.25 12.80 -2.35 13.60 -2.55 l1.35 -0.30 0 -12.20 c0 -9.45 -0.15 -12.20 -0.60 -12.20 -1.20 0 -52 9.45 -52.25 9.70 -0.15 0.15 0 34.50 0.30 76.40 0.30 41.90 0.55 83.30 0.55 92.05 0 12.75 0.15 15.85 0.65 15.85 0.35 0 5.05 -0.80 10.40 -1.75z m235.95 -0.20 c12.25 -3 20.30 -10.10 24.70 -21.75 3.05 -8.05 2.95 -4.35 2.55 -90.70 l-0.40 -78.65 -1.30 0.25 c-0.70 0.15 -3.90 0.75 -7.10 1.35 l-5.80 1.05 -3.15 5.95 c-2.95 5.55 -3.30 5.95 -4.65 5.95 -1.05 0 -2.15 -0.60 -3.65 -1.95 -2.60 -2.45 -6.95 -4.65 -11.10 -5.70 -6.45 -1.60 -15 1.40 -21.05 7.55 -4.20 4.20 -6.25 8.25 -7.60 15.10 -0.90 4.65 -0.95 7.30 -0.90 35.40 0.05 39.35 0.55 58.80 1.70 62.85 2 7.15 5.45 11.70 10.75 14.20 4.05 1.90 9.45 1.85 14.25 -0.15 3.95 -1.65 8.50 -4.90 10.85 -7.85 1.25 -1.55 1.90 -1.95 3.25 -1.95 l1.65 0 0 15.65 c0 16.90 -0.35 19.60 -2.60 21.70 -3.30 2.95 -9.90 2.75 -12 -0.40 -1.10 -1.70 -1.90 -5.90 -1.90 -10 0 -3.10 -0.10 -3.50 -0.85 -3.25 -0.50 0.15 -5.40 1.05 -10.90 2.05 -5.50 0.95 -10.50 1.85 -11.10 2 -1 0.25 -1.15 0.60 -1.15 2.40 0 3.15 1.80 9.80 3.85 14.20 3.20 6.95 11.20 13.55 18.75 15.45 3.30 0.85 9.75 0.50 14.90 -0.75z m-144.35 -14.05 c5.90 -1.55 11.95 -4.70 15.85 -8.35 5.75 -5.30 8.60 -10.65 10.60 -19.65 1.05 -4.65 1.05 -5.75 0.95 -43.50 -0.05 -21.30 -0.30 -41.05 -0.60 -43.85 -1.40 -14.40 -6.80 -23.60 -16.50 -28.10 -7.10 -3.30 -11.90 -3.65 -20.70 -1.50 -8.40 2.10 -16.85 7.70 -21.05 13.90 -2.30 3.35 -4.50 8.90 -5.50 13.60 -1.10 5.15 -1.40 29.25 -0.80 63.45 0.45 25.40 0.60 27.55 1.60 31.75 2.40 9.90 7.15 16.65 14.25 20.30 3.05 1.60 4.40 2.05 9 3.15 1.95 0.45 9.05 -0.20 12.90 -1.20z m58.85 -13.25 c5.35 -0.95 10.30 -1.90 10.95 -2.05 l1.15 -0.25 -0.15 -55.35 -0.20 -55.35 1.35 -2.55 c1.60 -3.05 4.65 -5.80 7.25 -6.60 1.05 -0.30 4.10 -0.70 6.80 -0.90 4.70 -0.35 4.85 -0.40 4.85 -1.55 0 -1.60 0.90 -17.50 1.25 -22 l0.30 -3.65 -1.40 0 c-1.90 0 -7.45 1.60 -9.95 2.90 -3.05 1.55 -7.45 5.80 -9.50 9.15 -1.70 2.75 -2 2.95 -3.65 2.95 -1.70 0 -2 -0.25 -4.80 -4.15 l-3 -4.15 -7.15 1.25 -7.15 1.30 0.30 61 c0.15 33.55 0.40 65.80 0.55 71.60 0.30 10.55 0.30 10.65 1.40 10.40 0.55 -0.10 5.45 -1 10.80 -2z m169.75 -28.60 c12.40 -3.50 20.55 -11 24.55 -22.65 2.20 -6.30 2.90 -12.10 2.55 -20.65 -0.15 -3.80 -0.40 -7.05 -0.50 -7.20 -0.15 -0.15 -5.55 0.70 -12.05 1.90 l-11.70 2.10 -0.20 10.30 c-0.15 11.35 -0.55 13.10 -3.55 15.25 -2.05 1.50 -7.55 1.70 -9.70 0.35 -2.75 -1.70 -3.05 -3.85 -3.35 -24.40 l-0.25 -18.10 1.35 -0.25 c0.75 -0.15 9.45 -1.75 19.35 -3.55 9.90 -1.80 18.50 -3.40 19.15 -3.50 l1.10 -0.25 0 -22.45 c0 -13.20 -0.20 -24.10 -0.55 -26.40 -1.85 -13.65 -10 -23.35 -21.90 -26.15 -5.95 -1.40 -16.65 0.25 -23.20 3.60 -10.70 5.35 -16 12.35 -18.70 24.55 -0.85 3.80 -0.90 7.25 -0.80 46.80 0.10 47.10 0.10 46.80 3.25 54.55 2.35 5.75 6.90 11.30 11.55 14.15 1.95 1.20 6.10 2.85 8.60 3.35 3.10 0.70 10.05 0.05 15 -1.35z" />
    <path
      d="M450.40 745.15 c-0.35 -20 0.15 -23.45 4.05 -26 2.35 -1.60 6.75 -1.60 9.05 0 2.85 1.90 3.05 3.25 3.15 21.30 0.10 15.75 0.05 16.20 -0.90 16.60 -1.40 0.60 -11.80 2.45 -13.60 2.45 l-1.50 0 -0.25 -14.35z" />
    <path
      d="M593.15 795.80 c-0.60 -0.45 -1.50 -2 -2 -3.45 -0.85 -2.45 -0.90 -5.25 -0.90 -47.35 0 -41.60 0.05 -44.90 0.90 -47.05 0.45 -1.25 1.55 -2.95 2.40 -3.75 1.35 -1.30 1.90 -1.45 5.40 -1.60 3.80 -0.20 3.90 -0.15 5.15 1.35 0.75 0.85 1.55 2.65 1.85 4.05 0.35 1.75 0.55 16.60 0.55 46.20 0 48.50 0.10 47.05 -3.25 50.30 -1.65 1.60 -2.05 1.75 -5.40 1.90 -2.70 0.10 -3.90 -0.05 -4.70 -0.60z" />
    <path
      d="M670.50 702.30 c0 -18.15 0.20 -19.60 2.85 -22.40 2.85 -3 8.05 -3.10 10.95 -0.20 2.35 2.35 2.75 5.80 2.60 22.80 l-0.15 14.25 -5.50 1.10 c-3 0.60 -6.70 1.10 -8.10 1.10 l-2.65 0.05 0 -16.70z" />
    <path
      d="M516.50 628.15 c-1.65 -0.60 -2.95 -2.40 -3.55 -4.85 -0.45 -1.90 -0.60 -13.60 -0.65 -47.05 -0.05 -44.40 -0.05 -44.50 1 -46.75 1.40 -2.90 2.75 -4.25 5 -5 2.45 -0.80 6.10 -0.30 7.55 1.10 2.65 2.50 2.65 2.50 2.65 50.35 0 28.95 -0.20 44.95 -0.50 46.15 -0.70 2.40 -2.75 4.85 -4.85 5.70 -1.60 0.70 -5.20 0.85 -6.65 0.35z" />
    <path
      d="M607 359.10 c-0.95 -0.45 -2.15 -1.65 -2.75 -2.60 -0.95 -1.65 -1 -2.90 -1.30 -18.75 -0.55 -27.70 -0.50 -62.75 0.10 -65.25 1.20 -5.25 4.40 -7.75 9.40 -7.35 2.35 0.15 2.95 0.45 4.20 1.90 3.15 3.75 3.05 3.15 3.40 22.20 0.65 32.45 0.50 59.25 -0.20 62.15 -1.80 6.80 -7.65 10.35 -12.85 7.70z" />
    <path
      d="M464 396.40 c-2.30 -0.85 -3.40 -2.95 -4 -7.70 -0.35 -2.55 -0.50 -18.95 -0.40 -46.95 0.15 -45.80 0.10 -44.50 2.55 -47.85 1.50 -2.05 4.50 -3.05 7.80 -2.65 3.25 0.40 4.75 1.80 5.50 5.15 0.60 2.90 1 88.65 0.40 92.45 -0.50 2.85 -1.85 5.25 -3.85 6.75 -1.60 1.20 -5.75 1.60 -8 0.80z" />
    <path
      d="M687.50 275.10 c0 -17.65 0.35 -20.50 2.65 -23 2.75 -2.95 8.65 -3.45 11.25 -0.95 2.35 2.25 2.60 4.45 2.60 21.85 l0 16 -1.10 0.25 c-4.05 0.85 -12.40 2.25 -13.75 2.25 l-1.65 0 0 -16.40z" />
  </g>
  <g fill="#2e8b58">
    <path
      d="M333.85 819.65 c-0.20 -24.70 -0.50 -66.50 -0.70 -92.90 l-0.30 -48 13.95 -2.60 c7.65 -1.45 14 -2.50 14.15 -2.40 0.10 0.10 0.30 17.65 0.45 39 0.20 33.60 0.35 38.75 1 38.75 0.65 0 13.45 -2.20 16.05 -2.80 l1.15 -0.25 -0.15 -39.10 -0.20 -39.10 13.95 -2.60 c7.70 -1.45 14.05 -2.55 14.10 -2.50 0.10 0.10 1 119.40 1.30 166.30 0.10 18.65 0.05 19.25 -0.85 19.60 -1.60 0.65 -26.75 5.15 -27 4.85 -0.15 -0.15 -0.45 -17.95 -0.65 -39.55 -0.20 -21.60 -0.45 -39.40 -0.60 -39.50 -0.15 -0.15 -4.20 0.45 -9 1.30 l-8.75 1.60 0.15 24.50 c0.05 13.50 0.25 31.40 0.45 39.90 0.15 8.45 0.20 15.35 0.10 15.35 -0.10 0 -6.15 1.15 -13.45 2.50 -7.30 1.35 -13.60 2.50 -14.05 2.50 -0.70 0 -0.80 -4.35 -1.10 -44.85z" />
    <path
      d="M445 843.35 c-9.10 -3.25 -15.35 -10.30 -18.40 -20.80 l-1.25 -4.30 -0.40 -39 c-0.45 -40.90 -0.35 -47.95 0.85 -54.50 2.55 -14.35 11.65 -24.05 26.05 -27.70 5.35 -1.40 13.50 -1.85 17.40 -1.05 4.10 0.85 9.65 3.45 12.20 5.80 4.80 4.30 7.70 9.25 9.65 16.45 1 3.80 1.10 5.30 1.30 29.35 0.15 20.90 0.05 25.45 -0.50 25.65 -0.35 0.10 -8.30 1.60 -17.65 3.25 -9.35 1.65 -18.20 3.25 -19.70 3.55 l-2.70 0.55 0.30 16.75 c0.20 10.25 0.55 17.50 0.90 18.70 0.90 2.90 2.55 4.20 5.45 4.20 2.10 0 2.70 -0.25 4.25 -1.75 0.95 -0.95 2 -2.50 2.25 -3.50 0.25 -0.95 0.50 -6.05 0.50 -11.35 l0 -9.55 2.40 -0.50 c6.70 -1.40 24.10 -4.25 24.35 -4 0.15 0.15 0.30 5.10 0.35 10.95 0 7.90 -0.20 11.60 -0.75 14.20 -2 8.80 -5 14.40 -10.55 19.60 -4.25 4 -7.80 6 -14.35 8.20 -4.20 1.40 -5.45 1.60 -11.70 1.75 -6.35 0.20 -7.30 0.10 -10.25 -0.95z m14 -86.65 c2.60 -0.45 5.05 -1 5.45 -1.20 0.95 -0.50 0.90 -28.90 -0.10 -31.75 -0.75 -2.20 -3.25 -4.25 -5.20 -4.25 -2.70 0 -5.30 2.25 -6.40 5.45 -0.85 2.60 -0.95 5.45 -0.85 21.75 l0.10 11.40 1.15 -0.25 c0.60 -0.15 3.25 -0.70 5.85 -1.15z" />
    <path
      d="M508.15 832.20 c0.10 -0.25 0 -32.70 -0.25 -72.10 -0.25 -39.45 -0.35 -71.80 -0.20 -71.95 0.25 -0.25 16.45 -3.20 16.55 -3 0.85 1.35 6.40 8.35 6.65 8.35 0.20 0 1 -1.10 1.80 -2.45 4.60 -7.75 13.05 -12.55 22.25 -12.55 l1.70 0 -0.30 3.40 c-0.20 1.85 -0.60 8.55 -0.90 14.90 l-0.60 11.55 -4.85 0.30 c-8.70 0.45 -13.05 3.55 -14.95 10.60 -0.35 1.40 -0.40 17.55 -0.10 55 0.25 29.15 0.30 53.15 0.15 53.30 -0.35 0.35 -21.85 4.45 -25.30 4.85 -1.05 0.10 -1.80 0 -1.65 -0.20z" />
    <path
      d="M588.65 818.50 c-6.45 -1.20 -12.35 -4.75 -16.35 -9.90 -2.95 -3.85 -4.10 -6.30 -5.60 -11.70 -1.15 -4.15 -1.30 -6.05 -1.70 -17.90 -0.25 -7.30 -0.45 -26.90 -0.45 -43.55 -0.05 -33 0.10 -35.40 2.80 -42.90 1.35 -3.80 4.25 -8.75 6.60 -11.25 1.80 -1.95 7.90 -6.05 11.25 -7.50 17.75 -7.85 36.10 -2.75 42.55 11.95 1.80 3.95 3.15 9.60 3.70 15 0.30 2.85 0.55 22.05 0.60 44.75 0.10 38.65 0.05 39.90 -0.95 44.50 -1.80 8.15 -4.20 13.05 -8.80 17.90 -4.20 4.45 -11.20 8.30 -17.85 9.85 -4.45 1 -12.30 1.35 -15.80 0.75z m13.15 -25.55 c3.30 -3.15 3.20 -2 3.20 -48.75 0 -28.50 -0.20 -42.95 -0.55 -44.70 -0.30 -1.40 -1.10 -3.20 -1.85 -4.05 -1.20 -1.45 -1.50 -1.55 -3.70 -1.35 -3 0.30 -4.95 2 -6.25 5.35 -0.85 2.15 -0.90 5.40 -0.90 45.55 0 40.60 0.05 43.40 0.90 45.85 1.20 3.35 2.40 4.30 5.25 4 1.60 -0.20 2.65 -0.70 3.90 -1.90z" />
    <path
      d="M667.10 803.80 c-12.05 -3.10 -20.35 -14.25 -21.80 -29.05 -0.15 -1.65 -0.30 -21.65 -0.35 -44.50 -0.05 -36.75 0.05 -41.95 0.75 -45.60 2.05 -10.15 6.20 -17.10 12.95 -21.75 7.35 -5.05 13.05 -6.85 22.75 -7.25 5.40 -0.25 7.20 -0.10 9.75 0.60 10.30 2.90 16.70 9.80 20 21.70 0.95 3.60 1.05 5.30 1.25 29.40 l0.20 25.55 -1.45 0.30 c-2.70 0.55 -34.40 6.20 -36.75 6.55 l-2.40 0.35 0.05 8.10 c0 4.40 0.20 12.50 0.40 17.90 l0.30 9.85 1.55 1.90 c2.50 3.10 6.25 3.15 9.05 0.10 1.85 -2.05 2.25 -5.05 2.20 -14.95 l-0.05 -9.30 13.35 -2.30 c7.35 -1.30 13.45 -2.30 13.55 -2.15 0.10 0.10 0.20 5.10 0.20 11.10 0.05 11.55 -0.35 14.85 -2.65 20.90 -5.30 14.25 -17.50 22.35 -34.45 23 -3.90 0.15 -6.60 0 -8.40 -0.45z m12.65 -87.45 l5.50 -1.10 0.15 -12.75 c0.15 -14.45 -0.30 -18.70 -2.25 -21 -3.25 -3.85 -8.40 -2.15 -10.40 3.45 -0.60 1.75 -0.75 4.95 -0.75 17.35 l0 15.20 1.15 -0.05 c0.60 0 3.60 -0.50 6.60 -1.10z" />
    <path
      d="M747.35 789.90 c-11 -0.95 -19.50 -8.90 -22.95 -21.60 -1.30 -4.70 -1.95 -21.15 -0.85 -21.55 0.85 -0.30 24.85 -4.75 25.70 -4.75 0.50 0 0.70 2.55 0.85 10.40 0.30 12.10 0.90 14.65 3.65 15.95 1.45 0.70 1.90 0.70 3.25 0.15 1.95 -0.80 3.75 -3.10 4.45 -5.75 1.15 -4.15 0.40 -13.80 -1.55 -19.70 -2.05 -6.35 -4.50 -9.30 -15.60 -18.95 -15.70 -13.60 -18.90 -19.05 -21.10 -35.60 -1.40 -10.80 -0.25 -21.50 3.05 -28 2.15 -4.20 6.05 -9.20 8.85 -11.40 3.10 -2.35 8.80 -5.05 13.40 -6.40 2.55 -0.75 4.95 -0.95 11.25 -0.95 7.95 0 8.05 0 12.20 1.70 3.60 1.45 4.75 2.20 7.60 5.10 5 5.05 7.35 10.75 8.50 20.75 0.55 4.65 0.40 14.40 -0.20 15 -0.20 0.25 -25.60 5.15 -26.70 5.20 -0.10 0 -0.15 -4.25 -0.15 -9.45 0 -10.65 -0.50 -13.95 -2.55 -16.10 -1.65 -1.80 -2.90 -1.85 -4.95 -0.15 -3.05 2.60 -4.05 7.70 -3.05 15.45 1.55 11.55 3.20 14.15 16.90 26.10 15.75 13.75 19.35 19.75 21.40 35.90 1.80 14.35 -0.10 25.20 -6.15 34.40 -6.50 10 -20.15 15.50 -35.25 14.25z" />
    <path
      d="M513.10 650.45 c-6.10 -0.55 -9.45 -1.85 -14.20 -5.40 -4.65 -3.45 -8.30 -9.50 -10.45 -17.45 -0.90 -3.40 -1.10 -6.15 -1.50 -24.35 -0.30 -11.25 -0.40 -31.65 -0.30 -45.25 0.25 -26.65 0.30 -27.30 3.10 -34.65 3.55 -9.40 11.50 -16.20 23.25 -19.90 3.25 -1.05 4.70 -1.20 11.25 -1.15 l7.50 0 4.10 1.80 c4.40 1.95 8.60 5 10.55 7.60 3.65 4.80 6.30 12.65 7.10 20.70 0.25 2.65 0.50 22.85 0.60 44.85 0.10 39.35 0.10 40.10 -0.95 44.75 -1.95 8.60 -4.70 13.75 -10 18.65 -4 3.75 -8.35 6.15 -14.30 8 -6.20 1.95 -9.55 2.35 -15.75 1.80z m8.55 -24.15 c2.10 -0.85 4.15 -3.30 4.85 -5.70 0.30 -1.20 0.50 -16.75 0.50 -44.65 0 -36.35 -0.10 -43.15 -0.75 -45.25 -1.20 -4.10 -3.90 -5.80 -7.15 -4.40 -2.05 0.85 -2.75 1.65 -4.25 4.70 l-1.10 2.25 0.05 43 c0.05 45.55 0.15 47.10 2.35 49.15 1.90 1.70 3.15 1.90 5.50 0.90z" />
    <path
      d="M571.45 630.20 c-0.15 -40.95 -0.80 -113.20 -1 -113.40 -0.10 -0.10 -1.75 0.10 -3.70 0.45 -1.90 0.40 -3.50 0.65 -3.55 0.60 -0.05 -0.05 -0.20 -3.25 -0.30 -7.05 l-0.25 -6.95 2.85 -3.30 c1.60 -1.80 3.35 -3.70 3.90 -4.25 1.05 -0.90 1.05 -1.20 0.75 -8.80 -0.35 -8.85 0.20 -13.65 2.20 -19.15 4.70 -13 18.35 -21.30 35.40 -21.55 4.55 -0.05 6 0.10 5.95 0.60 -0.05 0.30 -0.10 5.25 -0.10 11 l-0.10 10.35 -2.85 -0.20 c-5.50 -0.30 -10.60 2.60 -12.15 6.95 -0.35 0.95 -0.75 4.60 -0.85 8.15 -0.35 7.40 -1.10 6.85 7.05 5.35 3 -0.55 5.75 -1 6.05 -1 0.45 0 0.75 2.80 1 10.30 0.20 5.65 0.25 10.35 0.15 10.50 -0.15 0.10 -3.35 0.85 -7.20 1.60 l-6.95 1.35 0.15 28.25 c0.05 15.55 0.25 43 0.45 61 l0.30 32.75 -11.95 2.20 c-6.55 1.20 -12.70 2.30 -13.55 2.45 l-1.65 0.20 -0.05 -8.40z" />
  </g>
  <g fill="#3bb371">
    <path
      d="M369 419.15 c0 -8.50 -0.25 -50.70 -0.55 -93.80 -0.35 -43.10 -0.45 -78.50 -0.30 -78.65 0.25 -0.30 53.60 -10.15 55 -10.20 0.80 0 0.85 1 0.85 13.95 l0 13.95 -1.35 0.30 c-0.80 0.20 -6.90 1.30 -13.60 2.55 -6.70 1.20 -12.25 2.30 -12.35 2.40 -0.10 0.10 -0.05 12.15 0.10 26.75 0.30 20 0.50 26.60 0.95 26.60 0.35 0 5.55 -0.90 11.65 -2 6.05 -1.10 11.35 -2 11.80 -2 0.70 0 0.80 1.50 0.80 14 l0 14 -1.10 0.25 c-0.65 0.15 -5.65 1.05 -11.15 2 -5.50 1 -10.55 1.90 -11.20 2.05 l-1.15 0.25 0.20 38.95 0.20 38.95 -2.55 0.55 c-6.05 1.20 -24.70 4.50 -25.45 4.50 -0.70 0 -0.80 -1.60 -0.80 -15.35z" />
    <path
      d="M601.10 432.80 c-7.55 -1.95 -15.55 -8.50 -18.75 -15.45 -1 -2.10 -2.25 -5.70 -2.80 -8 -1 -4 -1.50 -10.55 -0.90 -11.15 0.40 -0.40 26.50 -5.20 26.80 -4.90 0.10 0.10 0.15 1.65 0.10 3.45 -0.15 3.75 0.70 8.40 1.85 10.15 1.25 1.90 3.80 2.80 6 2.05 5.10 -1.60 5.60 -3.65 5.60 -21.90 l0 -14.30 -1.80 2.15 c-2.65 3.10 -6.95 6.25 -10.95 7.90 -3.15 1.30 -4.05 1.45 -9 1.45 -4.85 0 -5.80 -0.15 -8.25 -1.30 -5.30 -2.50 -8.75 -7.05 -10.75 -14.20 -1.15 -4.10 -1.65 -23.60 -1.70 -64.35 -0.05 -29.60 0 -32.20 0.90 -36.90 1.35 -6.85 3.40 -10.90 7.60 -15.10 6.45 -6.50 15.80 -9.55 23.55 -7.65 4.55 1.10 8.85 3.25 11.60 5.75 l2.10 1.95 3.20 -5.95 c1.75 -3.30 3.30 -6 3.45 -6 0.20 0 3.90 -0.70 8.30 -1.50 4.40 -0.80 8.15 -1.30 8.30 -1.10 0.20 0.20 0.50 36.35 0.70 80.35 0.40 87.80 0.50 84 -2.55 92.05 -4.40 11.65 -12.35 18.70 -24.70 21.80 -4.95 1.20 -14.40 1.60 -17.90 0.70z m12.45 -75.60 c1.90 -0.95 4.30 -4.85 5 -8.10 0.70 -3.45 0.20 -72.75 -0.55 -75.65 -0.70 -2.60 -3.70 -6.30 -5.40 -6.70 -3.35 -0.70 -7 2.55 -8.05 7.25 -0.60 2.50 -0.65 34.70 -0.10 62.25 0.30 15.85 0.35 17.10 1.30 18.75 1.20 2 4 3.65 5.50 3.20 0.55 -0.20 1.60 -0.65 2.30 -1z" />
    <path
      d="M458.75 419.20 c-0.55 -0.10 -2 -0.50 -3.25 -0.80 -7.05 -1.75 -13.70 -7.25 -16.95 -14.10 -3.95 -8.20 -4.10 -9.60 -4.65 -40.30 -0.60 -34.95 -0.30 -61.35 0.80 -66.45 1 -4.70 3.25 -10.25 5.50 -13.60 4.20 -6.25 12.60 -11.75 21.20 -13.95 18.95 -4.75 34 3.30 38.55 20.75 1.75 6.65 2 12.95 2.10 54.25 0.10 39.40 0.10 40.35 -0.95 45 -2 9.05 -4.85 14.35 -10.60 19.65 -3.90 3.60 -9.90 6.75 -15.85 8.35 -3.75 1 -13.65 1.75 -15.90 1.20z m12.65 -25.80 c1.80 -1.70 2.45 -3.30 3 -7.25 0.65 -4.65 0.25 -85.05 -0.45 -88.15 -0.65 -3 -1.85 -4.45 -4.05 -4.95 -2.15 -0.50 -4.85 0.55 -6.30 2.45 -2.40 3.15 -2.35 2.20 -2.50 46.25 -0.15 42.75 0.05 47.90 1.80 50.95 1.70 2.90 5.75 3.20 8.50 0.70z" />
    <path
      d="M518.30 396.35 c-0.15 -6.10 -0.40 -39.10 -0.55 -73.35 l-0.30 -62.25 7.90 -1.40 c4.35 -0.75 8.25 -1.35 8.65 -1.35 0.40 0 2.10 1.95 3.75 4.25 1.60 2.35 3.10 4.25 3.30 4.25 0.15 0 1.15 -1.35 2.15 -2.95 2.15 -3.50 6.50 -7.65 9.75 -9.25 2.65 -1.35 7.65 -2.65 11.45 -3 2.55 -0.25 2.60 -0.20 2.60 1.05 0 1.90 -1.50 28.35 -1.65 28.80 -0.05 0.25 -2.20 0.50 -4.70 0.60 -2.50 0.10 -5.50 0.45 -6.60 0.80 -2.80 0.85 -5.80 3.55 -7.45 6.65 l-1.35 2.55 0.20 55.35 0.20 55.35 -1.20 0.25 c-0.65 0.20 -6.15 1.20 -12.20 2.30 -6.05 1.10 -11.60 2.10 -12.30 2.20 l-1.35 0.25 -0.30 -11.10z" />
    <path
      d="M685.25 377.55 c-11.55 -2.55 -19.75 -11.75 -22.50 -25.35 -0.70 -3.60 -0.85 -9.50 -0.90 -48.25 -0.10 -41 -0.05 -44.50 0.80 -48.30 1.55 -7.10 4.25 -12.65 8.35 -17.35 3.25 -3.70 10.75 -8 17.10 -9.80 4.70 -1.35 15.55 -1.90 19.45 -1 11.90 2.80 20.05 12.50 21.90 26.15 0.35 2.35 0.55 13.60 0.55 27.90 l0 23.95 -1.10 0.25 c-0.65 0.15 -9.80 1.80 -20.35 3.75 -10.60 1.95 -19.30 3.55 -19.35 3.65 -0.05 0.05 0.05 8 0.25 17.60 0.30 14.60 0.50 17.80 1.15 19.35 1.70 3.80 6.50 4.40 9.65 1.25 2.30 -2.30 2.80 -5.35 2.70 -15.85 l-0.10 -8.75 13.35 -2.45 c7.35 -1.35 13.45 -2.30 13.60 -2.15 0.65 0.65 0.80 17.70 0.25 22.10 -0.80 6.05 -3.35 13.20 -6.25 17.65 -6.30 9.55 -17.65 15.35 -30.95 15.85 -3.10 0.10 -6.50 0 -7.60 -0.20z m10.50 -88.75 c2.50 -0.45 5 -0.95 5.65 -1.05 l1.10 -0.25 0 -14.60 c0 -9.55 -0.20 -15.25 -0.60 -16.60 -0.70 -2.50 -2.55 -4.65 -4.35 -5.05 -1.65 -0.35 -4.40 0.75 -5.90 2.35 -2.30 2.50 -2.65 5.45 -2.65 21.55 l0 14.95 1.15 -0.25 c0.60 -0.15 3.15 -0.65 5.60 -1.05z" />
  </g>
</svg>